# xmcd
#
# Track frame offsets:
#	150
#	19995
#	29325
#	40283
#	53753
#	59588
#	70366
#	81204
#	89304
#	98679
#	111197
#
# Disc length: 1702 seconds
#
# Revision: 0
# Processed by: cddbd v1.5.2PL0 Copyright (c) Steve Scherf et al.
# Submitted via: audiograbber 1.83.01
#
DISCID=9106a40b
DTITLE=Chet Atkins and Merl Travis  - The Atkins and Travis Traveling Show
DYEAR=1974
DGENRE=Country
TTITLE0=Down South Blues
TTITLE1=Mutual Admiration
TTITLE2=Muskrat Ramble
TTITLE3=If I Had You
TTITLE4=Cannonball Rag
TTITLE5=Boogie For Cecil
TTITLE6=Is Anything Better Than This
TTITLE7=Dance Of The Golden Rod
TTITLE8=Who's Sorry Now
TTITLE9=Nine Pound Hammer
TTITLE10=I'll See You In My Dreams
EXTD=I created this CD from one of my LP's
EXTT0=
EXTT1=
EXTT2=
EXTT3=
EXTT4=
EXTT5=
EXTT6=
EXTT7=
EXTT8=
EXTT9=
EXTT10=
PLAYORDER=
